<svg xmlns="http://www.w3.org/2000/svg" width="45" height="45" viewBox="0 0 45 45">
  <g id="coffee-cup" transform="translate(0 0)">
    <g id="Group_3" data-name="Group 3" transform="translate(0 14.492)">
      <g id="Group_2" data-name="Group 2">
        <path id="Path_1" data-name="Path 1" d="M44.121,178.157H36.914v-1.918a.893.893,0,0,0-.879-.906H17.051a.907.907,0,0,0,0,1.812H35.156v6.947a17.374,17.374,0,0,1-8.263,14.861H10.021a17.374,17.374,0,0,1-8.263-14.861v-6.947H7.646a.907.907,0,0,0,0-1.812H.879a.893.893,0,0,0-.879.906v7.853a19.456,19.456,0,0,0,2.582,9.713,18.971,18.971,0,0,0,4.349,5.149H.879A.893.893,0,0,0,0,199.86a5.9,5.9,0,0,0,5.8,5.981H33.223a5.9,5.9,0,0,0,5.8-5.981.893.893,0,0,0-.879-.906H29.983a18.955,18.955,0,0,0,4.07-4.682h2.481A8.611,8.611,0,0,0,45,185.543v-6.479A.893.893,0,0,0,44.121,178.157Zm-6.952,22.609a4.08,4.08,0,0,1-3.947,3.262H5.8a4.08,4.08,0,0,1-3.947-3.262H37.169Zm-.255-16.674v-.5h2.813v1.948a3.248,3.248,0,0,1-3.193,3.292h-.2A19.636,19.636,0,0,0,36.914,184.093Zm6.328,1.45a6.823,6.823,0,0,1-6.709,6.917h-1.5a19.237,19.237,0,0,0,.75-1.812h.746a5.035,5.035,0,0,0,4.951-5.1v-2.854a.893.893,0,0,0-.879-.906H36.914V179.97h6.328Z" transform="translate(0 -175.333)"/>
      </g>
    </g>
    <g id="Group_5" data-name="Group 5" transform="translate(16.272 0)">
      <g id="Group_4" data-name="Group 4">
        <path id="Path_2" data-name="Path 2" d="M191.851,5.837l-.549-.689a2.749,2.749,0,0,1,0-3.438A1.055,1.055,0,0,0,189.647.4a4.849,4.849,0,0,0,.005,6.063l.549.689a3.593,3.593,0,0,1,0,4.492l-.562.709a1.055,1.055,0,1,0,1.652,1.311l.562-.709A5.693,5.693,0,0,0,191.851,5.837Z" transform="translate(-188.585 0)"/>
      </g>
    </g>
    <g id="Group_7" data-name="Group 7" transform="translate(21.055 2.371)">
      <g id="Group_6" data-name="Group 6">
        <path id="Path_3" data-name="Path 3" d="M247.28,28.321l-.549-.689a2.749,2.749,0,0,1,0-3.438,1.055,1.055,0,0,0-1.652-1.311,4.849,4.849,0,0,0,.005,6.063l.549.689a3.593,3.593,0,0,1,0,4.492l-.562.708a1.055,1.055,0,1,0,1.652,1.311l.562-.708A5.693,5.693,0,0,0,247.28,28.321Z" transform="translate(-244.014 -22.484)"/>
      </g>
    </g>
    <g id="Group_9" data-name="Group 9" transform="translate(11.489 2.371)">
      <g id="Group_8" data-name="Group 8">
        <path id="Path_4" data-name="Path 4" d="M136.422,28.322l-.549-.689a2.749,2.749,0,0,1,0-3.438,1.055,1.055,0,1,0-1.652-1.311,4.849,4.849,0,0,0,.005,6.063l.549.689a3.593,3.593,0,0,1,0,4.492l-.562.708a1.055,1.055,0,1,0,1.652,1.312l.562-.709A5.693,5.693,0,0,0,136.422,28.322Z" transform="translate(-133.156 -22.485)"/>
      </g>
    </g>
    <g id="Group_11" data-name="Group 11" transform="translate(11.613 15.284)">
      <g id="Group_10" data-name="Group 10">
        <path id="Path_5" data-name="Path 5" d="M135.01,175.639a1.055,1.055,0,1,0,.309.746A1.063,1.063,0,0,0,135.01,175.639Z" transform="translate(-133.21 -175.33)"/>
      </g>
    </g>
    <g id="Group_13" data-name="Group 13" transform="translate(26.277 21.506)">
      <g id="Group_12" data-name="Group 12">
        <path id="Path_6" data-name="Path 6" d="M313.512,262a1.055,1.055,0,0,0-1.055,1.055A15.111,15.111,0,0,1,308.1,273.61a1.055,1.055,0,1,0,1.5,1.485,17.236,17.236,0,0,0,4.968-12.04A1.055,1.055,0,0,0,313.512,262Z" transform="translate(-307.795 -262)"/>
      </g>
    </g>
    <g id="Group_15" data-name="Group 15" transform="translate(23.966 34.357)">
      <g id="Group_14" data-name="Group 14">
        <path id="Path_7" data-name="Path 7" d="M276.943,394.673a1.055,1.055,0,0,0-1.437-.4l-.024.014a1.055,1.055,0,1,0,1.036,1.837l.024-.014A1.055,1.055,0,0,0,276.943,394.673Z" transform="translate(-274.945 -394.136)"/>
      </g>
    </g>
  </g>
</svg>
