<svg xmlns="http://www.w3.org/2000/svg" width="45" height="45.375" viewBox="0 0 45 45.375">
  <g id="fish" transform="translate(-1 -1)">
    <path id="Path_17" data-name="Path 17" d="M33.616,41.54,35,42.431l.324-.5A32.866,32.866,0,0,0,40.3,28.077l-1.636-.193a31.21,31.21,0,0,1-4.721,13.153Z" transform="translate(-9.424 -8.408)"/>
    <path id="Path_18" data-name="Path 18" d="M41.63,24.048l-1.648-.024q-.011.788-.063,1.574l1.644.108Q41.616,24.878,41.63,24.048Z" transform="translate(-10.803 -6.389)"/>
    <path id="Path_19" data-name="Path 19" d="M27.856,35.359q.256.8.553,1.6l1.542-.579c-.189-.5-.362-1.007-.526-1.517Z" transform="translate(-7.476 -9.425)"/>
    <path id="Path_20" data-name="Path 20" d="M28.433,31.091l-1.614.333q.171.828.385,1.646l1.594-.417q-.2-.776-.365-1.562Z" transform="translate(-7.181 -8.369)"/>
    <path id="Path_21" data-name="Path 21" d="M27.838,27.24l-1.639.166q.085.841.213,1.676l1.629-.25q-.121-.791-.2-1.592Z" transform="translate(-7.002 -7.29)"/>
    <circle id="Ellipse_3" data-name="Ellipse 3" cx="1" cy="1" r="1" transform="translate(24.658 6)"/>
    <path id="Path_22" data-name="Path 22" d="M42.371,4.629H38.742V8.984H32.058a22.385,22.385,0,0,0-4.144-6.665,3.986,3.986,0,0,0-5.924,0,22.376,22.376,0,0,0-4.144,6.665H9.71V5.355H4.629A3.633,3.633,0,0,0,1,8.984V38.742A4.359,4.359,0,0,0,5.355,43.1H19.11l-.691,1.267v2.011l5.955-2.552h1.154l5.955,2.553V44.364L30.793,43.1H42.371A3.633,3.633,0,0,0,46,39.468V8.258A3.633,3.633,0,0,0,42.371,4.629ZM23.068,3.29a2.535,2.535,0,0,1,3.767,0A20.909,20.909,0,0,1,32.21,17.3,30.217,30.217,0,0,1,27.4,33.671l-.823,1.28a1.932,1.932,0,0,1-3.252,0L22.5,33.67A30.214,30.214,0,0,1,17.694,17.3a20.946,20.946,0,0,1,.743-5.52,12.618,12.618,0,0,0,1.435.9v2.842a3.629,3.629,0,1,0,7.258,0V11.887h1.452V10.435H27.129a5.729,5.729,0,0,0-2.321.68,6.6,6.6,0,0,1-2.76.772c-.416,0-1.37-.226-3.152-1.575A20.93,20.93,0,0,1,23.068,3.29ZM33.642,17.843a7.58,7.58,0,0,1,2.2,5.657c0,3.6-1.953,6.532-4.355,6.532A2.853,2.853,0,0,1,31,29.981,31.636,31.636,0,0,0,33.642,17.843ZM21.078,34.113a2.947,2.947,0,0,1-1.207.274c-2.4,0-4.355-2.93-4.355-6.532a8.4,8.4,0,0,1,1.3-4.626A31.661,31.661,0,0,0,21.078,34.113Zm.245-20.871a3.293,3.293,0,0,0,.726.1,7.871,7.871,0,0,0,3.355-.9c.094-.043.184-.081.274-.121v3.2a2.177,2.177,0,0,1-4.355,0ZM4.629,6.806H8.258V32.6a4.329,4.329,0,0,0-5.806,0V8.984A2.18,2.18,0,0,1,4.629,6.806Zm.726,34.839a2.906,2.906,0,0,1-2.9-2.9v-2.9a2.9,2.9,0,0,1,5.806,0V37.29a1.452,1.452,0,1,1-1.452-1.452V34.387a2.9,2.9,0,1,0,2.9,2.9V10.435h7.612A22.377,22.377,0,0,0,16.242,17.3a31.738,31.738,0,0,0,.273,4.058,9.083,9.083,0,0,0-2.45,6.5c0,4.4,2.6,7.984,5.806,7.984a4.386,4.386,0,0,0,1.989-.483l.245.38a3.4,3.4,0,0,0,.628.721L19.9,41.645Zm20.471.726H24.077L20.269,44l3.736-6.851a3.293,3.293,0,0,0,1.891,0L29.633,44Zm16.545-.726H30L27.17,36.456a3.366,3.366,0,0,0,.628-.721l.823-1.28a31.8,31.8,0,0,0,1.746-3.125,4.33,4.33,0,0,0,1.116.153c3.2,0,5.806-3.582,5.806-7.984,0-3.326-1.456-6.236-3.665-7.424a22.386,22.386,0,0,0-1.042-5.64h6.159V37.29h3.629a2.177,2.177,0,1,1,0,4.355Zm2.177-5.079a3.61,3.61,0,0,0-2.177-.727H40.194V6.081h2.177a2.18,2.18,0,0,1,2.177,2.177Z"/>
    <path id="Path_23" data-name="Path 23" d="M5,15H6.648v1.648H5Z" transform="translate(-0.705 -3.884)"/>
    <path id="Path_24" data-name="Path 24" d="M5,19H6.648v1.648H5Z" transform="translate(-0.705 -4.994)"/>
    <path id="Path_25" data-name="Path 25" d="M5,11H6.648v1.648H5Z" transform="translate(-0.705 -1.762)"/>
    <path id="Path_26" data-name="Path 26" d="M57,37h1.648v1.648H57Z" transform="translate(-15.943 -9.988)"/>
    <path id="Path_27" data-name="Path 27" d="M57,45h1.648v1.648H57Z" transform="translate(-15.943 -12.207)"/>
    <path id="Path_28" data-name="Path 28" d="M57,41h1.648v1.648H57Z" transform="translate(-15.943 -11.097)"/>
  </g>
</svg>
