<svg height="512pt" viewBox="0 -26 512 512" width="512pt" xmlns="http://www.w3.org/2000/svg"><path d="m482 0h-342c-5.523438 0-10 4.476562-10 10s4.476562 10 10 10h146v420h-256c-5.515625 0-10-4.488281-10-10v-400c0-5.515625 4.484375-10 10-10h20c5.523438 0 10-4.476562 10-10s-4.476562-10-10-10h-20c-16.542969 0-30 13.457031-30 30v400c0 16.539062 13.457031 30 30 30h452c16.542969 0 30-13.460938 30-30v-400c0-16.542969-13.457031-30-30-30zm0 440h-176v-160h86c5.523438 0 10-4.476562 10-10s-4.476562-10-10-10h-86v-240h176c5.515625 0 10 4.484375 10 10v230h-10c-5.523438 0-10 4.476562-10 10s4.476562 10 10 10h10v150c0 5.511719-4.484375 10-10 10zm0 0"/><path d="m428.125 332.246094c-2.261719 0-4.492188.175781-6.691406.511718-6.753906-19.0625-24.957032-32.757812-46.308594-32.757812-27.085938 0-49.125 22.035156-49.125 49.121094 0 27.089844 22.039062 49.125 49.125 49.125 4.863281 0 9.558594-.71875 14-2.042969 7.378906 14.277344 22.3125 23.792969 39 23.792969 24.191406 0 43.875-19.683594 43.875-43.875s-19.683594-43.875-43.875-43.875zm-82.125 16.878906c0-16.058594 13.066406-29.125 29.125-29.125s29.125 13.066406 29.125 29.125-13.066406 29.121094-29.125 29.121094-29.125-13.0625-29.125-29.121094zm82.125 50.875c-9.222656 0-17.460938-5.335938-21.410156-13.296875 9.882812-8.320313 16.441406-20.457031 17.398437-34.121094 1.3125-.21875 2.652344-.335937 4.011719-.335937 13.164062 0 23.875 10.710937 23.875 23.875 0 13.167968-10.710938 23.878906-23.875 23.878906zm0 0"/><path d="m435.914062 241.207031c.855469 0 1.726563-.109375 2.59375-.34375l26.082032-6.988281c5.207031-1.394531 8.371094-6.671875 7.148437-11.925781l-40.789062-175.417969c-.617188-2.640625-2.273438-4.917969-4.597657-6.3125-2.328124-1.394531-5.117187-1.785156-7.734374-1.082031l-26.734376 7.164062c-1.472656-3.699219-5.078124-6.304687-9.28125-6.304687h-27c-5.371093 0-9.78125 4.246094-9.992187 9.613281l-7 180c-.105469 2.71875.898437 5.363281 2.785156 7.320313 1.886719 1.960937 4.488281 3.070312 7.207031 3.070312h40c2.710938 0 5.304688-1.101562 7.1875-3.050781 1.886719-1.945313 2.898438-4.574219 2.808594-7.285157l-3.203125-96.074218 30.96875 100.554687c1.320313 4.289063 5.265625 7.0625 9.550781 7.0625zm-76.914062-21.207031 6.222656-160h7.707032l5.332031 160zm54.808594-158.871094 36.261718 155.929688-7.429687 1.992187-47.125-153.019531zm0 0"/><path d="m64.019531 395.980469c15.984375 15.984375 36.980469 23.980469 57.980469 23.980469s41.996094-7.996094 57.980469-23.980469c1.875-1.875 2.929687-4.417969 2.929687-7.070313s-1.054687-5.195312-2.929687-7.070312l-12.789063-12.792969c4.976563 1.550781 10.210938 2.355469 15.570313 2.355469 28.738281 0 52.117187-23.375 52.117187-52.113282 0-10.796874-3.261718-21.09375-9.320312-29.765624 6.058594-8.667969 9.320312-18.964844 9.320312-29.761719s-3.261718-21.09375-9.320312-29.761719c6.058594-8.671875 9.320312-18.96875 9.320312-29.765625 0-3.015625-.265625-6.003906-.777344-8.945313 19.109376-14.320312 31.898438-40.21875 31.898438-69.726562 0-44.976562-29.707031-81.566406-66.222656-81.566406-27.699219 0-51.46875 21.066406-61.335938 50.863281-4.902344-1.492187-10.023437-2.265625-15.207031-2.265625-28.734375 0-52.113281 23.375-52.113281 52.113281 0 10.796875 3.261718 21.09375 9.320312 29.761719-6.058594 8.671875-9.320312 18.96875-9.320312 29.765625s3.261718 21.09375 9.320312 29.765625c-6.058594 8.667969-9.320312 18.964844-9.320312 29.761719 0 6.183593 1.074218 12.203125 3.128906 17.847656-3.480469-1.15625-7.464844-.363281-10.234375 2.40625-15.484375 15.488281-24.015625 36.078125-24.015625 57.980469 0 21.90625 8.53125 42.496094 24.019531 57.984375zm103.898438-318.804688c8.703125-11.074219 20.019531-17.175781 31.859375-17.175781 11.84375 0 23.15625 6.101562 31.859375 17.175781 9.261719 11.789063 14.363281 27.554688 14.363281 44.386719s-5.101562 32.597656-14.363281 44.386719c-8.703125 11.078125-20.015625 17.179687-31.859375 17.179687-11.839844 0-23.15625-6.101562-31.859375-17.179687-9.261719-11.789063-14.363281-27.554688-14.363281-44.386719s5.101562-32.597656 14.363281-44.386719zm-67.402344 145.757813c-6.058594-6.066406-9.394531-14.125-9.394531-22.699219 0-8.570313 3.335937-16.632813 9.394531-22.691406 3.902344-3.90625 3.902344-10.230469 0-14.136719-6.058594-6.066406-9.394531-14.125-9.394531-22.699219 0-17.707031 14.40625-32.113281 32.117187-32.113281 3.753907 0 7.457031.660156 10.941407 1.921875-.398438 3.617187-.625 7.300781-.625 11.050781 0 44.972656 29.707031 81.5625 66.222656 81.5625 5.191406 0 10.234375-.765625 15.082031-2.160156-.183594 8.296875-3.488281 16.074219-9.375 21.964844-3.898437 3.902344-3.898437 10.226562 0 14.132812 6.058594 6.066406 9.394531 14.125 9.394531 22.695313 0 8.570312-3.335937 16.632812-9.394531 22.695312-3.898437 3.90625-3.898437 10.230469 0 14.136719 6.058594 6.0625 9.394531 14.125 9.394531 22.695312 0 17.707032-14.40625 32.113282-32.113281 32.113282-8.574219 0-16.632813-3.335938-22.695313-9.394532-3.90625-3.898437-10.234374-3.898437-14.136718 0-.972656.972657-2.015625 1.855469-3.09375 2.6875l-45.007813-45.007812c.832031-1.078125 1.714844-2.121094 2.6875-3.09375 3.898438-3.90625 3.898438-10.230469-.003906-14.136719-6.058594-6.0625-9.394531-14.125-9.394531-22.695312 0-8.570313 3.335937-16.632813 9.394531-22.695313 3.902344-3.90625 3.902344-10.230468 0-14.132812zm-28.863281 78.859375 86.546875 86.546875c-24.214844 17.433594-58.273438 15.265625-80.039063-6.5-11.710937-11.710938-18.160156-27.28125-18.160156-43.84375 0-13.175782 4.082031-25.726563 11.652344-36.203125zm0 0"/><path d="m130.558594 213.625c5.523437 0 10-4.480469 10-10.003906 0-5.523438-4.476563-10-10-10-5.523438 0-10 4.476562-10 10v.007812c0 5.523438 4.476562 9.996094 10 9.996094zm0 0"/><path d="m174.058594 260.125c5.523437 0 10-4.480469 10-10.003906 0-5.523438-4.476563-10-10-10-5.523438 0-10 4.476562-10 10v.007812c0 5.523438 4.476562 9.996094 10 9.996094zm0 0"/><path d="m129.058594 292.121094v.007812c0 5.523438 4.476562 9.996094 10 9.996094 5.523437 0 10-4.480469 10-10.003906 0-5.523438-4.476563-10-10-10-5.523438 0-10 4.476562-10 10zm0 0"/><path d="m95.003906 20c5.523438 0 10-4.476562 10-10s-4.476562-10-10-10h-.007812c-5.523438 0-9.996094 4.476562-9.996094 10s4.480469 10 10.003906 10zm0 0"/><path d="m436.996094 260c-5.523438 0-9.996094 4.476562-9.996094 10s4.480469 10 10.003906 10c5.519532 0 10-4.476562 10-10s-4.480468-10-10-10zm0 0"/></svg>