<svg xmlns="http://www.w3.org/2000/svg" width="50" height="39.054" viewBox="0 0 50 39.054">
  <g id="mutton" transform="translate(0 -56.043)">
    <g id="Group_17" data-name="Group 17" transform="translate(0 56.043)">
      <g id="Group_16" data-name="Group 16" transform="translate(0 0)">
        <path id="Path_12" data-name="Path 12" d="M45.749,62.844a26.741,26.741,0,0,0-9.565-4.422,82.122,82.122,0,0,0-20.071-2.38A16.132,16.132,0,0,0,0,72.156v6.827A16.132,16.132,0,0,0,16.113,95.1c4.1,0,7.174-1.283,10.431-2.642C29.913,91.05,33.4,89.6,38.3,89.6A11.718,11.718,0,0,0,50,77.893V71.065A10.233,10.233,0,0,0,45.749,62.844Zm-.822,16.695a.977.977,0,0,0,1.38.042,11.73,11.73,0,0,0,1.74-2.067v.379A9.762,9.762,0,0,1,38.3,87.644c-5.29,0-8.957,1.53-12.5,3.009-3.072,1.281-5.974,2.492-9.679,2.492a14.178,14.178,0,0,1-14.13-13.25,16.126,16.126,0,0,0,14.13,8.376c4.1,0,7.174-1.283,10.431-2.642,3.369-1.405,6.852-2.858,11.751-2.858.364,0,.732-.017,1.093-.051a.977.977,0,1,0-.182-1.945c-.3.028-.607.042-.911.042-5.29,0-8.957,1.53-12.5,3.009-3.072,1.281-5.974,2.492-9.679,2.492a14.16,14.16,0,1,1,0-28.321,80.107,80.107,0,0,1,19.553,2.31c8.215,2.256,12.38,5.876,12.38,10.759a9.787,9.787,0,0,1-3.079,7.093A.977.977,0,0,0,44.926,79.539Z" transform="translate(0 -56.043)"/>
      </g>
    </g>
    <g id="Group_19" data-name="Group 19" transform="translate(43.673 79.828)">
      <g id="Group_18" data-name="Group 18">
        <path id="Path_13" data-name="Path 13" d="M434.272,297.739a.8.8,0,0,0-1.062-.382l-.019.009a.8.8,0,1,0,1.081.373Z" transform="translate(-432.75 -297.281)"/>
      </g>
    </g>
    <g id="Group_21" data-name="Group 21" transform="translate(22.226 59.456)">
      <g id="Group_20" data-name="Group 20" transform="translate(0 0)">
        <path id="Path_14" data-name="Path 14" d="M226.78,98.795l-.041,0a.8.8,0,0,0-.127,1.592l.041,0,.065,0a.8.8,0,0,0,.063-1.594Z" transform="translate(-225.877 -98.789)"/>
      </g>
    </g>
    <g id="Group_23" data-name="Group 23" transform="translate(3.193 59.236)">
      <g id="Group_22" data-name="Group 22" transform="translate(0 0)">
        <path id="Path_15" data-name="Path 15" d="M82.981,102.979c-1-1.565-3.23-2.918-6.623-4.02a52.3,52.3,0,0,0-7.783-1.771c-1.22-.189-2.5-.358-3.8-.5a1,1,0,0,0-1.14.68c-.077.437.308.84.86.9,1.265.14,2.507.3,3.691.488,6.935,1.075,11.671,2.878,12.993,4.945a2.576,2.576,0,0,1,.413,1.43c0,2.635-2.711,4.778-6.042,4.778a38.336,38.336,0,0,0-10,1.331c-1.448.386-2.853.847-4.212,1.293-.9.295-1.829.6-2.751.877a20,20,0,0,1-5.968,1c-5.845,0-10.6-3.76-10.6-8.382s4.755-8.383,10.6-8.383c1.14,0,2.3.017,3.441.051l.582.019a.946.946,0,0,0,1.053-.762.9.9,0,0,0-.964-.833l-.6-.019c-1.168-.034-2.35-.052-3.516-.052-6.959,0-12.62,4.477-12.62,9.979S45.659,116,52.618,116a22.327,22.327,0,0,0,6.683-1.1c.952-.285,1.9-.6,2.81-.9,1.328-.436,2.7-.886,4.083-1.255A35.867,35.867,0,0,1,75.55,111.5c4.445,0,8.062-2.86,8.062-6.374A3.879,3.879,0,0,0,82.981,102.979Z" transform="translate(-39.998 -96.042)"/>
      </g>
    </g>
    <g id="Group_25" data-name="Group 25" transform="translate(12.643 64.258)">
      <g id="Group_24" data-name="Group 24" transform="translate(0 0)">
        <path id="Path_16" data-name="Path 16" d="M127.925,135.82a3.688,3.688,0,1,0,4.048,3.67A3.877,3.877,0,0,0,127.925,135.82Zm0,5.744a2.1,2.1,0,1,1,2.451-2.074A2.289,2.289,0,0,1,127.925,141.564Z" transform="translate(-123.877 -135.82)"/>
      </g>
    </g>
  </g>
</svg>
